<?xml version="1.0" encoding="UTF-8"?>
<svg width="117px" height="117px" viewBox="0 0 117 117" version="1.1" xmlns="http://www.w3.org/2000/svg" xmlns:xlink="http://www.w3.org/1999/xlink">
    <title>74E7F3B5-9E56-4476-87CA-AAE3357ACB13</title>
    <defs></defs>
    <g id="Self-Service-Desk-+-Kiosk" stroke="none" stroke-width="1" fill="none" fill-rule="evenodd" stroke-linejoin="round">
        <g id="1.0-Alert---Expired-Licence---SSD-HD" transform="translate(-902.000000, -280.000000)" stroke="#0D54E1" stroke-width="2">
            <g id="Stroke-1375-+-Stroke-1376-+-Stroke-1377" transform="translate(903.000000, 281.000000)">
                <path d="M114.560137,56.5295659 C115.109924,88.0386037 89.0261462,114.029021 57.5171085,114.578809 C26.0132574,115.123409 1.01868081,90.0250994 0.474080155,58.5160617 C-0.0757071701,27.0173973 26.0132574,1.01660614 57.5171085,0.472005486 C89.0209595,-0.0777818393 114.015536,25.0309016 114.560137,56.5295659 L114.560137,56.5295659 Z" id="Stroke-1375" stroke-linecap="round"></path>
                <path d="M57.5171085,65.2971178 L57.5171085,28.9904076" id="Stroke-1376" stroke-linecap="round"></path>
                <path d="M60.1104449,83.4504728 C60.1104449,84.8819946 58.9486302,86.0438093 57.5171085,86.0438093 C56.0855867,86.0438093 54.923772,84.8819946 54.923772,83.4504728 C54.923772,82.0189511 56.0855867,80.8571364 57.5171085,80.8571364 C58.9486302,80.8571364 60.1104449,82.0189511 60.1104449,83.4504728 L60.1104449,83.4504728 Z" id="Stroke-1377"></path>
            </g>
        </g>
    </g>
</svg>