<?xml version="1.0" encoding="UTF-8"?>
<svg width="26px" height="26px" viewBox="0 0 26 26" version="1.1" xmlns="http://www.w3.org/2000/svg" xmlns:xlink="http://www.w3.org/1999/xlink">
    <g id="Style-Guide" stroke="none" stroke-width="1" fill="none" fill-rule="evenodd">
        <g id="Style-Tile-/-Large-Desktop" transform="translate(-1400.000000, -287.000000)">
            <g id="Form-/-Large-/-Dropdown-Copy-3" transform="translate(1215.000000, 288.000000)">
                <g id="Error" transform="translate(186.000000, 0.000000)">
                    <path d="M23.4922706,11.5441714 C23.6054727,18.0319359 18.2347784,23.3834072 11.7470138,23.4966094 C5.26031721,23.6087436 0.113891287,18.4409588 0.00175708489,11.9531942 C-0.111445062,5.46756552 5.26031721,0.113958309 11.7470138,0.00182410608 C18.2337105,-0.111378041 23.3801364,5.05854267 23.4922706,11.5441714 L23.4922706,11.5441714 Z" id="Stroke-1375" stroke="#F15D6F" stroke-width="2" stroke-linecap="round" stroke-linejoin="round"></path>
                    <path d="M12,13.1276297 L12,6.05890603" id="Stroke-1376" stroke="#F15D6F" stroke-width="2" stroke-linecap="round" stroke-linejoin="round"></path>
                    <path d="M12.8387097,16.483871 C12.8387097,17.035871 12.3907097,17.483871 11.8387097,17.483871 C11.2867097,17.483871 10.8387097,17.035871 10.8387097,16.483871 C10.8387097,15.931871 11.2867097,15.483871 11.8387097,15.483871 C12.3907097,15.483871 12.8387097,15.931871 12.8387097,16.483871 L12.8387097,16.483871 Z" id="Stroke-1377" fill="#F15D6F"></path>
                </g>
            </g>
        </g>
    </g>
</svg>